<?xml version="1.0" encoding="UTF-8"?>
<svg xmlns="http://www.w3.org/2000/svg" xmlns:xlink="http://www.w3.org/1999/xlink" width="2400" height="1680" viewBox="0 0 2400 1680">
<rect x="-240" y="-168" width="2880" height="2016" fill="rgb(99.609375%, 99.609375%, 99.609375%)" fill-opacity="1"/>
<path fill-rule="evenodd" fill="rgb(0%, 0%, 0%)" fill-opacity="1" d="M 1595.308594 794.832031 C 1594.191406 789.214844 1603.988281 778.210938 1607.53125 773.824219 C 1613.738281 766.132812 1614.5 759.222656 1626.28125 758.949219 C 1632.5 758.804688 1642.589844 767.359375 1647.78125 771.058594 C 1654.328125 775.726562 1660.679688 780.519531 1667.089844 785.34375 C 1671.171875 788.410156 1683.75 797.023438 1683.308594 802.363281 C 1682.988281 806.273438 1678.121094 803.484375 1671.199219 802.382812 C 1666.460938 801.628906 1661.308594 800.839844 1656.621094 799.972656 C 1649.558594 798.664062 1632.019531 797.441406 1625.5 797.488281 C 1622.789062 797.511719 1620.429688 797.074219 1617.589844 797.097656 C 1611.339844 797.152344 1607.738281 796.988281 1601.351562 797.453125 C 1598.800781 797.640625 1595.949219 798.023438 1595.308594 794.832031 Z M 804.398438 795.585938 C 803.054688 798.875 797.054688 797.105469 790.054688 797.097656 C 787.28125 797.09375 784.507812 797.117188 781.738281 797.085938 L 757.996094 798.261719 C 755.601562 798.417969 753.03125 798.855469 750.5 799.070312 C 740.855469 799.894531 731.199219 802.214844 721.664062 803.828125 C 719.167969 804.253906 716.367188 805.816406 716.773438 801.683594 C 717.480469 794.527344 746.089844 775.730469 752.726562 770.71875 C 757.914062 766.800781 768.050781 758.492188 774.519531 758.988281 C 785.84375 759.859375 786.777344 766.523438 792.910156 774.230469 C 796.382812 778.59375 806.664062 790.054688 804.398438 795.585938 Z M 1415.609375 675.910156 C 1414.78125 668.820312 1416 659.730469 1424.480469 658.390625 C 1428.511719 657.761719 1439.851562 662.671875 1444.21875 664.289062 C 1483.289062 678.789062 1518.378906 694.472656 1555.5 713.835938 C 1561.191406 716.800781 1567.070312 719.933594 1572.609375 723.152344 C 1579.859375 727.367188 1582.960938 727.605469 1586.640625 735.910156 C 1593.75 752.003906 1584.101562 761.089844 1575.351562 772.976562 C 1552.789062 803.597656 1491.261719 849.640625 1458.179688 869.867188 C 1449.421875 875.226562 1432.710938 885.8125 1423.488281 888.707031 C 1417.039062 890.730469 1407.539062 890.59375 1403.058594 884.695312 C 1399.480469 879.992188 1404.71875 869.621094 1406.449219 864.195312 C 1420.121094 821.292969 1426.371094 767.167969 1422.730469 722.402344 C 1421.601562 708.503906 1420.671875 700.476562 1418.101562 687.019531 C 1417.460938 683.722656 1415.96875 678.929688 1415.609375 675.910156 Z M 984.101562 676.289062 C 983.0625 683.628906 981.050781 691.054688 979.9375 698.550781 C 976.433594 722.121094 975.03125 750.605469 977.175781 774.199219 C 978.679688 790.726562 980.09375 805.480469 983.09375 821.890625 C 985.789062 836.65625 989.339844 850.453125 993.828125 864.765625 C 995.546875 870.238281 1000.738281 880.195312 996.84375 884.894531 C 992.054688 890.679688 982.855469 890.722656 976.28125 888.652344 C 967.476562 885.882812 950.140625 874.910156 941.675781 869.722656 C 908.660156 849.492188 847.105469 803.421875 824.570312 772.773438 C 815.707031 760.71875 806.246094 751.878906 813.535156 735.605469 C 817.105469 727.640625 820.738281 727.074219 827.707031 723.003906 C 852.410156 708.574219 891.773438 690.503906 917.683594 679.328125 C 930.335938 673.878906 943.234375 669.019531 956.128906 664.171875 C 960.582031 662.5 971.726562 657.648438 975.886719 658.460938 C 984.6875 660.160156 985.128906 669.050781 984.101562 676.289062 Z M 1319.339844 638.539062 C 1319.171875 637.550781 1320.570312 634.230469 1321.359375 633.390625 C 1327.570312 626.769531 1356.371094 636.691406 1362.78125 639.269531 C 1368.898438 641.71875 1376.359375 645.488281 1379.851562 651.269531 C 1390.300781 668.628906 1396.359375 701.769531 1397.609375 721.46875 C 1400.871094 772.515625 1395.628906 826.753906 1376.308594 874.445312 C 1371.210938 887.019531 1364.078125 901.566406 1355.320312 911.976562 C 1343.371094 926.191406 1334.660156 927.75 1317.820312 933.367188 C 1310.570312 935.785156 1303 938.1875 1295.691406 940.398438 C 1284.421875 943.808594 1277.671875 937.859375 1284.890625 931.925781 C 1295.089844 923.546875 1305.101562 912.003906 1313.109375 901.480469 C 1330.898438 878.109375 1344.070312 851.261719 1352.058594 823.011719 C 1367.488281 768.449219 1363.128906 704.101562 1331.648438 655.679688 C 1330.441406 653.808594 1319.359375 638.621094 1319.339844 638.539062 Z M 1080.371094 639.289062 C 1080.359375 639.328125 1074.699219 646.539062 1074.101562 647.359375 C 1037.410156 697.324219 1031.691406 764.792969 1048.191406 823.613281 C 1059.589844 864.230469 1083.578125 904.648438 1115.640625 932.292969 C 1121.921875 937.707031 1115.921875 944.089844 1103.789062 940.210938 C 1096.339844 937.824219 1088.820312 935.582031 1081.410156 933.097656 C 1064.480469 927.410156 1056.371094 925.9375 1044.410156 911.582031 C 1018.578125 880.582031 1004.941406 816.273438 1002.519531 777.542969 C 1001.21875 756.742188 1001.078125 741.984375 1002.5 721.113281 C 1003.839844 701.390625 1009.738281 668.359375 1020.390625 651.039062 C 1023.960938 645.25 1031.691406 641.511719 1037.851562 639.050781 C 1044.039062 636.578125 1073.539062 626.460938 1079.171875 633.800781 C 1079.949219 634.820312 1080.699219 638.179688 1080.371094 639.289062 Z M 1192.121094 587.570312 C 1135.28125 589.058594 1073.289062 601.398438 1018.671875 617.230469 C 920.707031 645.628906 825.964844 688.445312 742.566406 747.34375 C 721.878906 761.953125 676.617188 796.828125 657.988281 815.03125 C 653.773438 819.152344 649.605469 823.058594 644.894531 826.621094 C 639.648438 830.59375 634.269531 834.203125 630.730469 839.933594 C 622.574219 853.144531 632.722656 863.078125 646.902344 859.152344 C 653.671875 857.277344 658.820312 853.355469 664.785156 849.949219 C 670.300781 846.800781 676.257812 844.410156 682.214844 842.226562 C 711.371094 831.535156 733.148438 825.222656 764.511719 822.925781 C 794.84375 820.703125 823.777344 820.816406 850.890625 836.304688 C 861.46875 842.347656 870.605469 850.148438 880.171875 857.613281 C 948.011719 910.570312 1038.960938 949.289062 1122.171875 971.242188 C 1147.328125 977.882812 1181.789062 987.800781 1207.449219 986.054688 C 1228.570312 984.617188 1269.261719 973.808594 1290.648438 967.730469 C 1362.160156 947.414062 1439.511719 914.980469 1499.839844 872.265625 C 1509.859375 865.171875 1519.140625 858.210938 1528.78125 850.609375 C 1538.921875 842.609375 1548.050781 836.054688 1560.019531 830.890625 C 1595.339844 815.648438 1654.730469 821.886719 1692.121094 833.179688 C 1703.601562 836.644531 1718.269531 841.789062 1729.121094 846.792969 C 1739.578125 851.621094 1752.78125 863.472656 1764.828125 859.183594 C 1770.480469 857.167969 1773.039062 852.050781 1771.921875 846.257812 C 1769.738281 834.992188 1756.019531 828.035156 1746.820312 819.566406 C 1742.390625 815.488281 1738.378906 811.320312 1733.738281 807.410156 C 1704.039062 782.371094 1680.78125 763.199219 1647.949219 740.6875 C 1606.261719 712.09375 1563.859375 688.605469 1517.878906 667.648438 C 1470.070312 645.851562 1419.441406 627.511719 1368.75 613.671875 C 1314.738281 598.921875 1247.980469 586.101562 1192.121094 587.570312 "/>
<path fill-rule="evenodd" fill="rgb(0%, 0%, 0%)" fill-opacity="1" d="M 1441.289062 548.691406 C 1439.871094 541.21875 1450.070312 545.980469 1451.078125 554.410156 C 1451.671875 559.308594 1448.140625 558.601562 1445.53125 556.148438 C 1443.191406 553.960938 1441.871094 551.800781 1441.289062 548.691406 Z M 958.429688 549.058594 C 957.886719 551.929688 958.171875 553.261719 954.125 556.460938 C 949.960938 559.761719 948.363281 557.371094 949.0625 554.078125 C 949.707031 551.03125 950.726562 548.609375 953.351562 546.628906 C 956.824219 544.011719 959.394531 543.988281 958.429688 549.058594 Z M 1460.539062 540.378906 C 1460.210938 538.601562 1460.851562 535.929688 1462.890625 535.519531 C 1467.089844 534.660156 1472.929688 542.75 1474.808594 545.730469 C 1481.980469 557.089844 1481.300781 573.199219 1478.121094 574.238281 C 1475.730469 575.019531 1474.929688 572.699219 1473.96875 571.121094 C 1472.089844 568.019531 1469.949219 565.449219 1468.109375 562.261719 C 1464.179688 555.441406 1461.929688 547.878906 1460.539062 540.378906 Z M 939.175781 540.761719 C 937.703125 548.980469 936.140625 555.371094 931.703125 562.730469 C 929.886719 565.738281 927.34375 568.71875 925.835938 571.578125 C 920.945312 580.890625 917.929688 567.390625 920.972656 555.398438 C 924.933594 539.800781 941.4375 528.140625 939.175781 540.761719 Z M 1346.898438 396.921875 C 1345.628906 399.191406 1340.300781 401.339844 1337.851562 401.460938 C 1334.839844 401.621094 1327.53125 400.960938 1329.609375 396.660156 C 1332.941406 389.75 1350.230469 390.96875 1346.898438 396.921875 Z M 1052.808594 396.171875 C 1051.601562 389.871094 1069.78125 390.980469 1070.75 397.421875 C 1071.339844 401.28125 1064.578125 401.738281 1061.539062 401.410156 C 1059.390625 401.179688 1053.289062 398.648438 1052.808594 396.171875 Z M 1355.960938 343.691406 C 1354.308594 350.910156 1354.421875 353.800781 1350.808594 360.808594 C 1337.421875 386.898438 1309.800781 382.199219 1307.871094 377.019531 C 1306.03125 372.101562 1327.449219 362.351562 1333.261719 358.359375 C 1337.269531 355.621094 1348.378906 346.910156 1351.429688 342.929688 C 1353.839844 339.800781 1357.058594 338.890625 1355.960938 343.691406 Z M 1043.75 342.929688 C 1043.519531 341.339844 1044.460938 339.839844 1046.179688 340.449219 C 1047.089844 340.769531 1048.148438 342.601562 1048.929688 343.410156 C 1053.808594 348.5 1061.609375 354.71875 1067.269531 358.679688 C 1073.359375 362.949219 1080.070312 365.730469 1088.21875 371.320312 C 1090.351562 372.78125 1093.738281 374.710938 1091.78125 377.730469 C 1087.738281 383.929688 1049.941406 386.089844 1043.75 342.929688 Z M 1198.910156 166.628906 C 1198.289062 166.679688 1186.921875 175.628906 1185.628906 176.75 C 1176.191406 184.921875 1158.539062 203.851562 1152.070312 213.421875 C 1137.46875 235.03125 1133.171875 258.640625 1128.890625 283.859375 C 1125.769531 302.21875 1120.660156 342.71875 1097.628906 346.410156 C 1083.738281 348.640625 1076.011719 337.5 1073.839844 325.269531 C 1067.75 291.03125 1083.710938 280.71875 1080.03125 265.609375 C 1078.679688 260.050781 1074.578125 256.101562 1068.691406 256.140625 C 1056.691406 256.21875 1050.058594 270.199219 1044.460938 278.859375 C 1036.378906 291.328125 1034.519531 292.519531 1026.308594 307.371094 C 1002.78125 349.921875 1003.378906 377.210938 1005.28125 424.578125 C 1006.390625 452.320312 1003.570312 474.691406 979.046875 491.390625 C 967.019531 499.570312 950.15625 500.378906 950.050781 489.460938 C 949.960938 480.148438 964.507812 463.058594 952.136719 456.328125 C 940.066406 449.769531 930.859375 462.550781 924.953125 471.058594 C 918.425781 480.46875 911.726562 488.300781 905.765625 498.28125 C 893.007812 519.648438 884.167969 542 880.515625 566.71875 C 878.164062 582.621094 874.832031 638.75 905.328125 626.179688 C 913.402344 622.859375 920.710938 615.789062 936.074219 609.101562 C 970.164062 594.28125 1001.269531 580.859375 1037.308594 569.800781 C 1091.320312 553.230469 1145.421875 546.53125 1201.949219 546.699219 C 1307.828125 547.019531 1374.140625 569.371094 1466.351562 610.128906 C 1479.179688 615.808594 1488.96875 624.539062 1497.148438 627.050781 C 1525.96875 635.910156 1521.679688 579.148438 1519.140625 564.050781 C 1514.988281 539.308594 1506.109375 517.78125 1493.179688 496.410156 C 1487.378906 486.808594 1480.238281 478.550781 1473.898438 469.300781 C 1470.570312 464.441406 1466.980469 459.378906 1461.648438 456.570312 C 1456.910156 454.058594 1450.609375 453.941406 1446.308594 457.429688 C 1436.289062 465.550781 1451.929688 482.058594 1449.828125 491.320312 C 1448.550781 496.949219 1441.859375 497.941406 1437.03125 497.539062 C 1430.160156 496.96875 1424.261719 493.921875 1418.839844 489.839844 C 1373.21875 455.480469 1410.539062 405.539062 1387.390625 337.578125 C 1378.339844 311.019531 1368.308594 298.941406 1354.460938 277.109375 C 1349.019531 268.539062 1341.75 254.429688 1329.351562 256.320312 C 1323.539062 257.199219 1320.230469 262.011719 1319.558594 267.570312 C 1318.761719 274.140625 1321.46875 280.691406 1323.640625 286.75 C 1328.269531 299.710938 1328.800781 314.03125 1325.789062 327.46875 C 1323.050781 339.691406 1313.96875 349.488281 1300.558594 346.011719 C 1278.648438 340.320312 1273.988281 300.109375 1270.808594 281.609375 C 1266.449219 256.238281 1261.96875 233.390625 1246.941406 211.851562 C 1240.101562 202.050781 1232.960938 195.589844 1224.949219 187.050781 C 1221.109375 182.96875 1217.5 178.890625 1213.128906 175.359375 C 1211.550781 174.078125 1200.121094 166.539062 1198.910156 166.628906 "/>
<path fill-rule="evenodd" fill="rgb(0%, 0%, 0%)" fill-opacity="1" d="M 1266.871094 1214.261719 C 1265.691406 1225.496094 1263.980469 1233.667969 1259.289062 1244.058594 C 1255.390625 1252.722656 1250.710938 1260.9375 1247.269531 1269.796875 C 1242.289062 1282.65625 1242.261719 1291.75 1239.148438 1299.421875 C 1237.960938 1302.328125 1234.199219 1312.078125 1230.25 1305.609375 C 1221.941406 1291.992188 1227.679688 1274.351562 1233.441406 1260.867188 C 1236.859375 1252.863281 1242.488281 1244.191406 1246.898438 1236.570312 C 1250.070312 1231.078125 1259.800781 1211.046875 1262.019531 1204.503906 C 1262.628906 1202.695312 1263.230469 1198.359375 1265.078125 1198.074219 C 1268.109375 1197.613281 1267.238281 1203.296875 1267.238281 1205.203125 C 1267.25 1208.652344 1267.230469 1210.847656 1266.871094 1214.261719 Z M 1132.851562 1213.507812 C 1132.589844 1211.128906 1132.859375 1207.019531 1132.851562 1204.449219 C 1132.851562 1202.902344 1132.148438 1196.570312 1135.511719 1198.285156 C 1136.828125 1198.960938 1137.648438 1203.476562 1138.261719 1205.074219 C 1141.421875 1213.316406 1149.378906 1229.917969 1153.46875 1237.050781 C 1162.621094 1252.960938 1175.191406 1272.589844 1173.738281 1291.726562 C 1172.949219 1302.226562 1167.410156 1317.503906 1160.738281 1298.867188 C 1157.390625 1289.492188 1157.929688 1283.386719 1152.621094 1269.238281 C 1144.730469 1248.21875 1135.949219 1242.324219 1132.851562 1213.507812 Z M 1145.308594 1037.578125 C 1144.820312 1033.097656 1185.101562 1036.003906 1190.78125 1036.652344 C 1196.089844 1037.257812 1200.5 1037.515625 1205.839844 1036.957031 C 1221.699219 1035.296875 1236.808594 1033.976562 1252.578125 1036.003906 C 1259.21875 1036.855469 1247.609375 1042.398438 1246.351562 1043.113281 C 1232.238281 1051.15625 1210.371094 1057.796875 1193.820312 1055.882812 C 1183.378906 1054.675781 1176.949219 1052.601562 1167.160156 1049.328125 C 1164.351562 1048.394531 1145.539062 1039.707031 1145.308594 1037.578125 Z M 1027.210938 1031.21875 C 1030.109375 1031.003906 1031.808594 1034.582031 1033.398438 1036.605469 C 1037.859375 1042.300781 1039.5 1045.925781 1040.308594 1053.121094 C 1040.960938 1058.960938 1037.738281 1071.46875 1032.289062 1059.984375 C 1026.480469 1047.738281 1028.570312 1046.308594 1026.980469 1035.847656 C 1026.691406 1033.933594 1026.058594 1032.90625 1027.210938 1031.21875 Z M 1372.859375 1031.246094 C 1374.160156 1033.105469 1372.640625 1038.222656 1372.578125 1040.976562 C 1372.5 1043.867188 1371.929688 1048.640625 1371.199219 1051.308594 C 1370.550781 1053.691406 1365.660156 1068.949219 1361.53125 1063.355469 C 1360.378906 1061.800781 1359.621094 1055.453125 1359.730469 1053.441406 C 1360.121094 1046.445312 1362.570312 1042.101562 1366.53125 1036.824219 C 1368.050781 1034.8125 1369.980469 1030.933594 1372.859375 1031.246094 Z M 1412.96875 1009.265625 C 1411.210938 1014.722656 1409.160156 1018.554688 1407.851562 1024.535156 C 1404.539062 1039.601562 1403.539062 1056.207031 1404.640625 1071.578125 C 1405.699219 1086.285156 1405.691406 1104.667969 1400.589844 1118.066406 C 1398.71875 1122.964844 1396.589844 1127.199219 1393.71875 1131.582031 C 1392.371094 1133.640625 1390.96875 1135.597656 1389.570312 1137.613281 C 1387.671875 1140.335938 1384.390625 1140.9375 1383.878906 1137.214844 C 1383.578125 1134.988281 1386.949219 1105.273438 1387.410156 1099.980469 C 1388.519531 1087.03125 1388.25 1073.757812 1389.28125 1060.707031 C 1390.429688 1046.328125 1396.191406 1026.890625 1404.320312 1014.578125 C 1405.660156 1012.550781 1407.148438 1010.601562 1408.539062 1008.613281 C 1410.871094 1005.265625 1414.238281 1005.324219 1412.96875 1009.265625 Z M 986.746094 1008.511719 C 986.554688 1006.914062 987.578125 1005.863281 989.144531 1006.347656 C 990.726562 1006.839844 995.035156 1013.558594 996.035156 1015.078125 C 1004.230469 1027.542969 1009.851562 1047.367188 1010.859375 1061.789062 C 1011.769531 1074.746094 1011.898438 1087.707031 1012.738281 1100.675781 C 1013.089844 1106.003906 1016.859375 1135.828125 1015.988281 1138.167969 C 1012.621094 1147.230469 1000.460938 1120.589844 999.296875 1117.519531 C 991.019531 1095.691406 997.679688 1068.214844 994.976562 1041.429688 C 992.757812 1019.476562 986.90625 1009.84375 986.746094 1008.511719 Z M 958.054688 950.371094 C 954.273438 950.488281 945.941406 954.65625 943.636719 958.066406 C 940.578125 962.585938 941.320312 968.125 943.226562 972.925781 C 947.195312 982.945312 952.734375 986.277344 958.097656 1002.714844 C 967.457031 1031.410156 967.84375 1050.425781 967.832031 1080.277344 C 967.808594 1148.445312 978.949219 1189.910156 1024.621094 1241.371094 C 1030.851562 1248.394531 1038.011719 1260.820312 1046.390625 1264.316406 C 1059.210938 1269.652344 1065.570312 1258.070312 1062.511719 1246.335938 C 1061.011719 1240.597656 1058.070312 1235.132812 1056.230469 1229.429688 C 1051.03125 1213.375 1050.019531 1188.703125 1054.628906 1172.953125 C 1057.621094 1162.710938 1065.78125 1151.75 1077.828125 1153.492188 C 1091.019531 1155.402344 1092.679688 1171.027344 1093.480469 1181.625 C 1095.628906 1210.261719 1096.738281 1226.144531 1110.078125 1252.132812 C 1115 1261.722656 1120.820312 1271.015625 1125.039062 1280.929688 C 1135.570312 1305.703125 1128.648438 1332.925781 1133.070312 1359.335938 C 1136.96875 1382.570312 1147.921875 1401.1875 1157.320312 1422.34375 C 1161.800781 1432.417969 1166.179688 1441.9375 1171.421875 1451.65625 C 1177.019531 1462.03125 1181.351562 1470.441406 1184.808594 1481.863281 C 1187.109375 1489.425781 1190.628906 1508.664062 1197.511719 1512.613281 C 1206.449219 1517.746094 1211.679688 1495.28125 1213 1490.203125 C 1220.371094 1461.734375 1228.238281 1454.847656 1239.390625 1429.90625 C 1257.78125 1388.773438 1269.230469 1375.0625 1268.890625 1328.761719 C 1268.789062 1315.273438 1268.289062 1301.769531 1272.210938 1288.691406 C 1277.851562 1269.902344 1292.199219 1253.378906 1299.660156 1228.933594 C 1303.5 1216.386719 1304.648438 1204.5625 1305.808594 1191.578125 C 1306.761719 1180.960938 1306.230469 1163.820312 1315.191406 1156.570312 C 1324.628906 1148.9375 1336.808594 1155.601562 1342.121094 1164.882812 C 1352.761719 1183.476562 1348.691406 1218.519531 1340.800781 1237.402344 C 1338.539062 1242.792969 1336.101562 1248.761719 1336.78125 1254.722656 C 1337.390625 1260.015625 1340.570312 1264.40625 1346.019531 1265.328125 C 1357.230469 1267.222656 1364.609375 1254.820312 1370.429688 1247.394531 C 1376.839844 1239.21875 1383.71875 1231.964844 1390.109375 1223.488281 C 1464.699219 1124.546875 1406.558594 1056.414062 1452.890625 980.535156 C 1458.558594 971.246094 1462.878906 958.828125 1450.308594 952.679688 C 1439.679688 947.476562 1427.75 953.957031 1418.160156 958.613281 C 1408.261719 963.421875 1397.839844 967.714844 1387.628906 971.839844 C 1348.449219 987.671875 1288.089844 1000.8125 1246.039062 1004.648438 C 1231.078125 1006.011719 1179.949219 1006.207031 1164.449219 1005.402344 C 1139.570312 1004.105469 1112.679688 999.585938 1088.351562 994.117188 C 1054.199219 986.4375 1021.078125 977.128906 989.429688 962.050781 C 984.398438 959.65625 979.480469 957.195312 974.253906 955.226562 C 972.078125 954.40625 959.605469 950.324219 958.054688 950.371094 "/>
<path fill-rule="evenodd" fill="rgb(0%, 0%, 0%)" fill-opacity="1" d="M 754.945312 889.589844 C 749.285156 890.769531 742.679688 896.316406 737.964844 899.792969 C 722.410156 911.261719 705.910156 922.707031 690.148438 933.898438 C 679.542969 941.425781 668.769531 948.882812 657.855469 955.96875 C 651.9375 959.8125 645.738281 963.082031 645.804688 971.128906 C 645.867188 978.8125 653.523438 984.761719 660.910156 982.824219 C 669.699219 980.519531 741.332031 928.214844 757.890625 916.320312 C 763.519531 912.273438 769.898438 909.308594 769.835938 901.285156 C 769.773438 893.285156 762.714844 887.96875 754.945312 889.589844 "/>
<path fill-rule="evenodd" fill="rgb(0%, 0%, 0%)" fill-opacity="1" d="M 1640.238281 889.589844 C 1632.648438 891.09375 1628.199219 898.257812 1630.949219 905.671875 C 1632.949219 911.105469 1640.671875 915.183594 1645.328125 918.472656 C 1672.121094 937.351562 1697.800781 956.703125 1725.320312 974.773438 C 1730.519531 978.183594 1737.710938 984.304688 1744.160156 982.976562 C 1751.738281 981.421875 1756.179688 973.90625 1753.558594 966.527344 C 1751.578125 960.925781 1743.851562 957.085938 1739.011719 953.914062 C 1716.78125 939.355469 1696.429688 923.957031 1674.859375 908.957031 C 1669.550781 905.265625 1664.351562 901.257812 1659.011719 897.625 C 1653.070312 893.589844 1647.851562 888.085938 1640.238281 889.589844 "/>
<path fill-rule="evenodd" fill="rgb(0%, 0%, 0%)" fill-opacity="1" d="M 1490.359375 991.144531 C 1481.511719 992.34375 1471.261719 1002.125 1466.949219 1009.640625 C 1458.050781 1025.164062 1457.921875 1045.757812 1460.28125 1063.128906 C 1462.03125 1075.980469 1464.429688 1099.394531 1462.390625 1111.90625 C 1462.058594 1113.964844 1460.488281 1119.140625 1463.71875 1119.71875 C 1467.160156 1120.339844 1470.558594 1109.992188 1471.78125 1107.339844 C 1479.898438 1089.683594 1482.179688 1075.832031 1483.910156 1056.421875 C 1485.171875 1042.367188 1486.890625 1034.820312 1490.828125 1021.429688 C 1492.398438 1016.074219 1501.980469 989.570312 1490.359375 991.144531 "/>
<path fill-rule="evenodd" fill="rgb(0%, 0%, 0%)" fill-opacity="1" d="M 908.21875 991.144531 C 901.558594 992.386719 904.316406 1001.980469 905.15625 1006.664062 C 906.109375 1011.96875 908.175781 1017.980469 909.785156 1023.179688 C 919.167969 1053.453125 913.4375 1063.796875 923.015625 1093.761719 C 924.527344 1098.492188 926.636719 1104.257812 928.851562 1108.6875 C 929.953125 1110.882812 934.140625 1123.644531 937.75 1118.847656 C 939.097656 1117.0625 937.773438 1112.535156 937.453125 1110.28125 C 936.328125 1102.277344 937.117188 1088.003906 937.8125 1080.007812 C 938.964844 1066.820312 941.335938 1054.773438 941.089844 1041.328125 C 940.785156 1024.613281 935.753906 1007.953125 922.355469 997.394531 C 919.207031 994.914062 912.234375 990.394531 908.21875 991.144531 "/>
<path fill-rule="evenodd" fill="rgb(0%, 0%, 0%)" fill-opacity="1" d="M 1326.890625 1309.019531 C 1316.53125 1310.679688 1311.640625 1313.800781 1306.050781 1322.910156 C 1297.648438 1336.613281 1294.988281 1361.742188 1292.210938 1378.535156 C 1291.191406 1384.742188 1289.230469 1403.898438 1296.449219 1407.070312 C 1303.371094 1410.109375 1312.121094 1396.597656 1314.558594 1391.449219 C 1318.988281 1382.125 1319.519531 1372.8125 1320.679688 1362.835938 C 1321.238281 1358.066406 1321.300781 1344.796875 1321.921875 1338.019531 C 1322.160156 1335.421875 1322.320312 1332.695312 1322.699219 1330.121094 C 1325.378906 1312.277344 1328.75 1315.96875 1330.949219 1312.269531 C 1333 1308.820312 1329.191406 1308.652344 1326.890625 1309.019531 "/>
<path fill-rule="evenodd" fill="rgb(0%, 0%, 0%)" fill-opacity="1" d="M 1070.558594 1309.019531 C 1064.839844 1310.59375 1072.628906 1313.933594 1074.628906 1318.535156 C 1081.988281 1335.453125 1074.609375 1369.695312 1086.539062 1393.457031 C 1088.910156 1398.171875 1099.609375 1412.882812 1105.570312 1405.574219 C 1107.789062 1402.855469 1109.039062 1395.210938 1109.078125 1391.722656 C 1109.171875 1382.976562 1104.171875 1354.886719 1102.371094 1346.292969 C 1099.75 1333.792969 1095.359375 1319.855469 1084.171875 1312.398438 C 1081.058594 1310.332031 1074.121094 1308.039062 1070.558594 1309.019531 "/>
<path fill-rule="evenodd" fill="rgb(0%, 0%, 0%)" fill-opacity="1" d="M 770.800781 958.675781 C 765.140625 959.726562 764.078125 961.597656 760.601562 965.84375 L 737.003906 995.101562 C 732.101562 1001.320312 725.421875 1007.820312 721.070312 1014.273438 C 715.125 1023.085938 722.96875 1035.007812 733.230469 1033.253906 C 740.414062 1032.027344 747.03125 1021.917969 751.539062 1016.429688 C 757.523438 1009.148438 779.398438 983.539062 782.859375 977.53125 C 788.339844 968.03125 781.335938 956.726562 770.800781 958.675781 "/>
<path fill-rule="evenodd" fill="rgb(0%, 0%, 0%)" fill-opacity="1" d="M 1625.519531 958.675781 C 1614.46875 961.214844 1612.359375 971.410156 1618.878906 980.039062 C 1628.839844 993.230469 1640.238281 1006.03125 1650.449219 1018.6875 C 1655.570312 1025.042969 1661.601562 1034.988281 1670.949219 1033.191406 C 1675.121094 1032.390625 1678.898438 1029.195312 1680.320312 1025.175781 C 1682.179688 1019.878906 1680.46875 1016.007812 1677.238281 1011.90625 C 1672.21875 1005.527344 1666.511719 999.03125 1661.25 992.789062 C 1655.921875 986.46875 1650.859375 979.632812 1645.53125 973.394531 C 1640.308594 967.277344 1634.820312 956.542969 1625.519531 958.675781 "/>
<path fill-rule="evenodd" fill="rgb(0%, 0%, 0%)" fill-opacity="1" d="M 1585.878906 1031.160156 C 1577.378906 1032.574219 1574.589844 1037.042969 1574.550781 1045.890625 C 1574.5 1056.351562 1579.421875 1078.851562 1583.230469 1089.304688 C 1585.800781 1096.371094 1588.671875 1101.777344 1597.570312 1100.992188 C 1604.46875 1100.386719 1609.679688 1092.894531 1608.199219 1086.226562 C 1605.890625 1075.761719 1602.070312 1067.835938 1600.640625 1054.902344 C 1600.410156 1052.789062 1599.980469 1051.484375 1599.828125 1049.304688 C 1599.679688 1047.277344 1599.609375 1044.832031 1599.421875 1042.914062 C 1598.769531 1036.230469 1592.738281 1030.019531 1585.878906 1031.160156 "/>
<path fill-rule="evenodd" fill="rgb(0%, 0%, 0%)" fill-opacity="1" d="M 812.328125 1031.160156 C 803.964844 1032.621094 800.882812 1036.800781 800.636719 1045.519531 C 800.484375 1050.84375 798.503906 1062.722656 796.984375 1067.914062 C 795.738281 1072.171875 791.648438 1084.96875 791.550781 1088.5625 C 791.355469 1095.902344 798.230469 1101.421875 805.164062 1101.015625 C 813.152344 1100.550781 815.53125 1093.660156 817.53125 1087.328125 C 819.597656 1080.777344 821.511719 1073.289062 822.796875 1066.546875 C 824.101562 1059.695312 825.890625 1050.101562 825.542969 1043.242188 C 825.203125 1036.503906 819.351562 1029.9375 812.328125 1031.160156 "/>
<path fill-rule="evenodd" fill="rgb(0%, 0%, 0%)" fill-opacity="1" d="M 1408.441406 260.628906 C 1402.578125 262.25 1401.28125 278.191406 1401.679688 283.25 C 1402.988281 299.851562 1414.410156 309.839844 1423.660156 320.921875 C 1425.761719 323.429688 1428.480469 326.148438 1430.820312 328.480469 C 1436.621094 334.289062 1434.71875 336.539062 1437.269531 337.210938 C 1441.171875 338.25 1442.671875 331.320312 1443.191406 328.609375 C 1444.070312 324.039062 1443.171875 320.019531 1442.210938 315.578125 C 1440.578125 308.089844 1437.121094 301.339844 1433.050781 294.921875 C 1426.910156 285.25 1422.558594 276.121094 1416.289062 267.128906 C 1414.558594 264.640625 1411.929688 259.671875 1408.441406 260.628906 "/>
<path fill-rule="evenodd" fill="rgb(0%, 0%, 0%)" fill-opacity="1" d="M 990.144531 260.628906 C 985.929688 261.789062 979.679688 273.359375 977.378906 277.308594 C 973.644531 283.730469 970.253906 289.710938 966.289062 296.050781 C 960.757812 304.890625 954.5625 319.429688 957.164062 330.230469 C 957.710938 332.488281 960.90625 340.808594 964.207031 336.238281 C 965.625 334.28125 964.160156 333.550781 970.230469 327.550781 C 974.664062 323.160156 987.859375 307.851562 990.828125 303.601562 C 994.875 297.808594 998.492188 288.5 998.464844 281.421875 C 998.449219 277.261719 997 258.75 990.144531 260.628906 "/>
<path fill-rule="evenodd" fill="rgb(0%, 0%, 0%)" fill-opacity="1" d="M 1476.390625 711.019531 L 1463.21875 711.820312 C 1458.21875 712.335938 1457.859375 716.472656 1463.339844 718.039062 C 1484.328125 724.046875 1505.160156 739.839844 1522.941406 742.242188 C 1526.390625 742.707031 1532.21875 743.546875 1535.441406 742.507812 C 1539.910156 741.0625 1538.929688 736.660156 1536.851562 733.621094 C 1532.339844 727.023438 1529.261719 724.222656 1522.480469 720.054688 C 1511.96875 713.597656 1488.28125 708.941406 1476.390625 711.019531 "/>
<path fill-rule="evenodd" fill="rgb(0%, 0%, 0%)" fill-opacity="1" d="M 911.996094 711.019531 C 908.65625 711.589844 906.675781 711.054688 899.507812 712.5 C 895.476562 713.3125 892.3125 714.070312 888.402344 715.367188 C 881.648438 717.609375 875.640625 720.382812 870.375 725.273438 C 867.15625 728.261719 856.921875 737.898438 863.609375 742.039062 C 868.046875 744.785156 882.003906 741.324219 887.03125 739.664062 C 899.957031 735.394531 912.628906 727.46875 925.308594 722.066406 C 928.667969 720.636719 932.042969 719.34375 935.5625 718.355469 C 943.707031 716.070312 940.5625 712.820312 938.128906 712.070312 C 934.550781 710.972656 915.980469 710.34375 911.996094 711.019531 "/>
<path fill-rule="evenodd" fill="rgb(0%, 0%, 0%)" fill-opacity="1" d="M 849.703125 588.699219 C 838.691406 593.140625 832.9375 633 848.988281 633.488281 C 853.3125 633.621094 856.492188 630.390625 858.132812 626.578125 C 859.726562 622.878906 858.980469 615.871094 858.765625 611.730469 C 858.558594 607.691406 856.53125 585.949219 849.703125 588.699219 "/>
<path fill-rule="evenodd" fill="rgb(0%, 0%, 0%)" fill-opacity="1" d="M 1548.121094 588.699219 C 1542.671875 591.050781 1541.609375 609.011719 1541.328125 614.378906 C 1541.039062 619.890625 1540.089844 623.078125 1542.828125 628.359375 C 1544.898438 632.371094 1549.261719 634.378906 1553.558594 633.019531 C 1568.578125 628.289062 1557.898438 584.5 1548.121094 588.699219 "/>
<path fill-rule="evenodd" fill="rgb(0%, 0%, 0%)" fill-opacity="1" d="M 979.195312 385.21875 C 976.578125 385.878906 976.496094 385.789062 974.597656 388.171875 C 970.683594 393.078125 965.203125 411.261719 964.839844 416.210938 C 963.804688 430.320312 995.601562 412.480469 987.652344 391.480469 C 986.511719 388.480469 983.167969 384.210938 979.195312 385.21875 "/>
<path fill-rule="evenodd" fill="rgb(0%, 0%, 0%)" fill-opacity="1" d="M 1419.390625 385.21875 C 1415.199219 386.28125 1413.558594 387.980469 1411.96875 392.898438 C 1405.328125 413.378906 1438.53125 431.550781 1434.910156 414.621094 C 1433.539062 408.199219 1430.671875 397.371094 1427.621094 391.710938 C 1426.691406 390 1425.898438 388.628906 1424.589844 387.191406 C 1422.839844 385.269531 1421.609375 384.660156 1419.390625 385.21875 "/>
<path fill-rule="evenodd" fill="rgb(0%, 0%, 0%)" fill-opacity="1" d="M 1030.160156 1331.296875 C 1025.96875 1332.574219 1026.679688 1334.636719 1025.25 1338.46875 C 1020.300781 1351.789062 1028.539062 1364.449219 1033.710938 1363.191406 C 1036.679688 1362.464844 1038.121094 1358.925781 1038.898438 1356.265625 C 1041.339844 1347.898438 1039.109375 1343.492188 1036.210938 1336.953125 C 1035.609375 1335.605469 1035.179688 1334.078125 1034.21875 1332.894531 C 1033.578125 1332.097656 1032.378906 1331.277344 1031.441406 1331.117188 C 1030.058594 1330.886719 1031.089844 1331.007812 1030.160156 1331.296875 "/>
<path fill-rule="evenodd" fill="rgb(0%, 0%, 0%)" fill-opacity="1" d="M 1368.421875 1331.296875 C 1364.699219 1332.832031 1364.871094 1334.886719 1363.269531 1338.222656 C 1361.511719 1341.882812 1360.921875 1343.304688 1360.261719 1347.292969 C 1359.589844 1351.320312 1361.761719 1364.925781 1368.191406 1363.1875 C 1373.261719 1361.816406 1376.371094 1352.015625 1376.359375 1347.152344 C 1376.351562 1343.921875 1374.109375 1328.945312 1368.421875 1331.296875 "/>
<path fill-rule="evenodd" fill="rgb(0%, 0%, 0%)" fill-opacity="1" d="M 910.863281 744.242188 C 908.324219 744.855469 906.742188 744.488281 902.710938 747.417969 C 900.078125 749.335938 898.746094 750.695312 897.253906 753.660156 C 892.75 762.597656 905.976562 761.707031 910.796875 760.410156 C 916.84375 758.785156 919.402344 754.300781 923.976562 750.558594 C 927.578125 747.613281 925.574219 745.050781 921.558594 744.496094 L 913.492188 743.835938 C 911.058594 743.839844 911.15625 744.171875 910.863281 744.242188 "/>
<path fill-rule="evenodd" fill="rgb(0%, 0%, 0%)" fill-opacity="1" d="M 1482.808594 744.242188 C 1466.449219 744.242188 1478.488281 752.414062 1480.078125 754.152344 C 1484.851562 759.371094 1488.679688 761.242188 1496.03125 761.242188 C 1511.019531 761.246094 1501.171875 745.273438 1488.429688 743.910156 C 1487.628906 743.824219 1486.269531 743.820312 1485.441406 743.847656 C 1484.058594 743.894531 1483.53125 744.242188 1482.808594 744.242188 "/>
</svg>
